<svg width="98" height="115" viewBox="0 0 98 115" fill="none" xmlns="http://www.w3.org/2000/svg">
<mask id="mask0_79_971" style="mask-type:luminance" maskUnits="userSpaceOnUse" x="0" y="0" width="98" height="115">
<path d="M0.480057 0.250732H97.1426V114.849H0.480057V0.250732Z" fill="white"/>
</mask>
<g mask="url(#mask0_79_971)">
<path d="M51.3564 0.260986L17.1848 1.88111C16.022 1.78764 14.4803 1.44492 12.5683 0.852955C10.2514 2.53539 6.22055 4.31649 0.480057 6.19625V114.532C6.76747 113.799 11.5046 112.6 14.6999 110.933L22.7401 111.312C26.7881 109.391 29.3332 108.503 30.3797 108.654C33.8464 108.425 40.9004 109.303 51.5459 111.286C55.2064 110.808 59.3535 110.596 63.9786 110.647L70.3866 109.64L74.8222 109.739L81.2044 108.622L86.8717 108.581C89.6579 107.641 92.0696 106.935 94.1108 106.467L96.8885 106.95V5.53677C96.0918 5.7289 94.5888 5.74968 92.3753 5.5887L77.897 4.01012L67.3075 1.83957L51.3564 0.260986Z" fill="#2F0B62"/>
</g>
<mask id="mask1_79_971" style="mask-type:luminance" maskUnits="userSpaceOnUse" x="1" y="0" width="96" height="113">
<path d="M1.22938 0.250732H96.0401V112.387H1.22938V0.250732Z" fill="white"/>
</mask>
<g mask="url(#mask1_79_971)">
<path d="M51.2918 0.260986L17.9169 1.84476C16.78 1.75129 15.277 1.41896 13.408 0.837377C11.1428 2.48346 7.20672 4.22302 1.59973 6.06124V111.873C7.74072 111.162 12.3702 109.988 15.4923 108.358L23.343 108.731C27.2963 106.857 29.7811 105.99 30.8061 106.13C34.1909 105.912 41.0812 106.769 51.477 108.705C55.0556 108.238 59.1037 108.03 63.6212 108.082L69.8784 107.096L74.215 107.194L80.4508 106.104L85.9845 106.062C88.7062 105.143 91.0618 104.453 93.0557 103.996L95.7688 104.468V5.41215C94.9893 5.60428 93.5208 5.61986 91.359 5.46408L77.2166 3.92184L66.8725 1.80322L51.2918 0.260986Z" fill="#91007B"/>
</g>
<path d="M33.5905 80.9405C30.6147 80.9405 28.0265 80.146 25.8216 78.5518C23.6253 76.9629 21.9157 74.4807 20.6883 71.1159C19.4696 67.751 18.8624 63.493 18.8624 58.3418C18.8624 53.2062 19.4696 48.9534 20.6883 45.5885C21.9157 42.2133 23.6253 39.726 25.8216 38.1318C28.0265 36.5428 30.6147 35.7432 33.5905 35.7432C36.5748 35.7432 39.1716 36.5428 41.3765 38.1318C43.5814 39.726 45.2911 42.2133 46.5098 45.5885C47.7242 48.9534 48.3357 53.2062 48.3357 58.3418C48.3357 63.493 47.7242 67.751 46.5098 71.1159C45.2911 74.4807 43.5814 76.9629 41.3765 78.5518C39.1716 80.146 36.5748 80.9405 33.5905 80.9405ZM33.5905 73.5876C35.2183 73.5876 36.5791 73.1099 37.673 72.1544C38.7754 71.199 39.6195 69.5996 40.2052 67.3563C40.7908 65.1131 41.0837 62.1117 41.0837 58.3418C41.0837 54.5771 40.7908 51.5705 40.2052 49.3273C39.6195 47.084 38.7754 45.4951 37.673 44.55C36.5791 43.5945 35.2183 43.1168 33.5905 43.1168C31.9583 43.1168 30.5932 43.5945 29.4907 44.55C28.3969 45.4951 27.5614 47.084 26.9757 49.3273C26.3901 51.5705 26.0972 54.5771 26.0972 58.3418C26.0972 62.1117 26.3901 65.1131 26.9757 67.3563C27.5614 69.5996 28.3969 71.199 29.4907 72.1544C30.5932 73.1099 31.9583 73.5876 33.5905 73.5876Z" fill="white"/>
<path d="M66.2527 80.9405C62.3467 80.9405 59.2461 79.9435 56.9507 77.9495C54.664 75.9555 53.2127 73.141 52.5926 69.4957L58.0532 66.4424L58.6389 66.5463C59.2461 68.9713 60.1203 70.742 61.2572 71.8636C62.3941 72.9749 63.9788 73.5253 66.0115 73.5253C67.9752 73.5253 69.4653 72.98 70.4902 71.8844C71.5237 70.7783 72.0405 69.1738 72.0405 67.0656C72.0405 65.0041 71.528 63.4255 70.5074 62.3298C69.4825 61.2238 67.9838 60.6681 66.0115 60.6681H60.5337V53.8969H65.3052C66.9331 53.8969 68.2336 53.4087 69.1983 52.4221C70.1629 51.4407 70.6452 50.0439 70.6452 48.2264C70.6452 46.4297 70.1887 45.0693 69.2844 44.1553C68.3757 43.2414 67.1226 42.7845 65.5292 42.7845C63.9099 42.7845 62.4673 43.2518 61.2055 44.1761C59.9523 45.09 58.9489 46.3311 58.191 47.8941L57.6053 48.0187L53.8156 42.7014C55.099 40.6139 56.7483 38.9315 58.7594 37.6541C60.7662 36.3819 63.1563 35.7432 65.9254 35.7432C69.7495 35.7432 72.665 36.709 74.6761 38.6303C76.6829 40.5568 77.6906 43.2622 77.6906 46.7517C77.6906 48.8599 77.2815 50.6566 76.4675 52.1521C75.6622 53.6372 74.4909 54.925 72.9535 56.0155V56.6386C77.1566 58.4249 79.2581 62.0338 79.2581 67.4602C79.2581 70.1916 78.7758 72.5646 77.8112 74.5846C76.8551 76.6097 75.4039 78.1728 73.453 79.2788C71.5108 80.3848 69.1121 80.9405 66.2527 80.9405Z" fill="white"/>
</svg>
