<svg width="987" height="473" viewBox="0 0 987 473" fill="none" xmlns="http://www.w3.org/2000/svg">
<mask id="mask0_65_134" style="mask-type:luminance" maskUnits="userSpaceOnUse" x="-13" y="0" width="1000" height="473">
<path d="M-13 0H987V472.546H-13V0Z" fill="white"/>
</mask>
<g mask="url(#mask0_65_134)">
<mask id="mask1_65_134" style="mask-type:luminance" maskUnits="userSpaceOnUse" x="-19" y="-26" width="1026" height="510">
<path d="M881.852 483.588L-18.8097 287.166L105.454 -25.7152L1006.12 170.706L881.852 483.588Z" fill="white"/>
</mask>
<g mask="url(#mask1_65_134)">
<mask id="mask2_65_134" style="mask-type:luminance" maskUnits="userSpaceOnUse" x="-19" y="-26" width="1026" height="510">
<path d="M881.852 483.588L-18.8097 287.166L105.454 -25.7152L1006.12 170.706L881.852 483.588Z" fill="white"/>
</mask>
<g mask="url(#mask2_65_134)">
<path d="M823.281 470.816L850.51 472.365C863.415 468.603 876.408 465.906 889.489 464.275L986.298 220.505C961.064 225.424 939.831 216.641 922.604 194.157C917.161 200.226 905.907 200.068 888.844 193.679C887.417 193.368 884.392 190.655 879.769 185.535L854.916 155.071C801.285 174.166 766.675 180.371 751.088 173.683C747.193 174.48 741.448 163.413 733.861 140.488C712.189 138.184 689.808 123.654 666.71 96.899L658.944 98.6798C646.115 109.521 634.244 118.49 623.326 125.582C616.91 129.794 611.897 131.948 608.288 132.044C601.155 132.236 595.368 129.692 590.935 124.412L568.585 82.3269L515.542 98.3774C507.035 99.0021 495.759 97.6452 481.72 94.3096C448.533 106.849 423.314 112.554 406.067 111.42C398.232 110.253 392.502 106.34 388.882 99.6833L382.424 56.1369C366.166 55.8174 356.629 55.1701 353.806 54.1977C336.712 59.7806 323.533 62.4066 314.263 62.0759C298.699 61.6264 279.042 56.3771 255.291 46.3308C225.678 48.9144 207.413 49.0925 200.501 46.8622C196.465 46.3195 184.803 42.2178 165.524 34.5629C153.039 34.3565 140.568 32.1262 128.117 27.8663C107.453 16.1691 96.3407 6.99053 94.7881 0.336304L-12.8017 271.24C-6.54936 272.623 0.267504 275.246 7.64894 279.107C12.8255 281.787 21.7824 288.351 34.5159 298.796L235.032 342.526L346.467 347.555L362.347 350.24L408.684 364.612C446.744 360.408 476.079 360.507 496.686 364.908C510.087 368.074 519.803 371.416 525.826 374.932C528.775 375.856 540.68 385.182 561.535 402.906C564.957 405.184 568.528 406.951 572.247 408.209C577.321 410.018 585.892 411.768 597.966 413.458L699.456 423.988C708.142 425.37 716.584 427.097 724.778 429.167C731.537 430.916 738.08 433.183 744.397 435.968L790.04 463.566L823.281 470.816Z" fill="#004AAD"/>
</g>
</g>
</g>
<mask id="mask3_65_134" style="mask-type:luminance" maskUnits="userSpaceOnUse" x="-10" y="14" width="993" height="447">
<path d="M-9.09367 14.4729H982.117V460.244H-9.09367V14.4729Z" fill="white"/>
</mask>
<g mask="url(#mask3_65_134)">
<mask id="mask4_65_134" style="mask-type:luminance" maskUnits="userSpaceOnUse" x="-19" y="-26" width="1026" height="510">
<path d="M881.852 483.588L-18.8097 287.166L105.454 -25.7155L1006.12 170.706L881.852 483.588Z" fill="white"/>
</mask>
<g mask="url(#mask4_65_134)">
<mask id="mask5_65_134" style="mask-type:luminance" maskUnits="userSpaceOnUse" x="-19" y="-26" width="1026" height="510">
<path d="M881.852 483.588L-18.8097 287.166L105.454 -25.7155L1006.12 170.706L881.852 483.588Z" fill="white"/>
</mask>
<g mask="url(#mask5_65_134)">
<path d="M828.331 458.104L855.408 460.04C868.081 456.855 880.879 454.644 893.803 453.412L981.362 232.94C956.49 236.94 935.112 228.525 917.229 207.686C912.041 213.119 900.868 212.757 883.709 206.606C882.283 206.295 879.189 203.759 874.421 199.005L848.69 170.743C796.135 187.127 762.009 192.121 746.308 185.724C742.466 186.375 736.382 176.173 728.051 155.116C706.463 152.6 683.743 138.922 659.886 114.077L652.245 115.55C639.889 125.192 628.422 133.144 617.836 139.405C611.615 143.122 606.717 144.991 603.142 145.008C596.066 145.047 590.237 142.616 585.652 137.715L562.001 98.9029L509.923 112.522C501.503 112.929 490.265 111.476 476.216 108.163C443.718 118.965 418.892 123.685 401.738 122.32C393.921 121.104 388.1 117.427 384.274 111.287L376.343 71.4464C360.199 70.8415 350.712 70.0669 347.878 69.1285C331.109 73.8916 318.12 76.0343 308.907 75.5565C293.45 74.847 273.758 69.6825 249.837 60.063C220.54 61.8523 202.42 61.6629 195.485 59.4976C191.456 58.9238 179.745 54.9607 160.34 47.6082C147.946 47.1814 135.495 44.9058 122.986 40.7844C102.07 29.7175 90.7255 21.1355 88.9517 15.0353L-8.35744 260.046C-2.10515 261.426 4.75368 263.947 12.2152 267.613C17.4452 270.157 26.5623 276.314 39.5628 286.083L240.082 329.814L350.842 336.539L366.692 339.292L413.182 353.29C450.802 350.183 479.916 350.836 500.523 355.246C513.932 358.392 523.69 361.626 529.789 364.948C532.75 365.849 544.888 374.581 566.208 391.146C569.68 393.292 573.285 394.971 577.019 396.186C582.119 397.936 590.687 399.697 602.726 401.47L703.812 413.02C712.479 414.45 720.917 416.186 729.123 418.23C735.894 419.957 742.463 422.147 748.829 424.807L795.09 450.856L828.331 458.104Z" fill="#0769B2"/>
</g>
</g>
</g>
</svg>
