<svg width="2125" height="908" viewBox="0 0 2125 908" fill="none" xmlns="http://www.w3.org/2000/svg">
<mask id="mask0_88_3227" style="mask-type:luminance" maskUnits="userSpaceOnUse" x="0" y="0" width="2125" height="908">
<path d="M0 0H2124.57V908H0V0Z" fill="white"/>
</mask>
<g mask="url(#mask0_88_3227)">
<mask id="mask1_88_3227" style="mask-type:luminance" maskUnits="userSpaceOnUse" x="-1" y="-30" width="2126" height="961">
<path d="M2088.3 930.097L-0.790161 900.336L35.3071 -29.2175L2124.4 0.544095L2088.3 930.097Z" fill="white"/>
</mask>
<g mask="url(#mask1_88_3227)">
<mask id="mask2_88_3227" style="mask-type:luminance" maskUnits="userSpaceOnUse" x="-1" y="-30" width="2126" height="961">
<path d="M2088.3 930.097L-0.790161 900.336L35.3071 -29.2175L2124.4 0.544095L2088.3 930.097Z" fill="white"/>
</mask>
<g mask="url(#mask2_88_3227)">
<path d="M259.873 904.053L270.637 903.591C309.272 900.86 427.327 886.129 624.79 859.399C649.69 857.019 675.218 855.561 701.379 855.023C728.785 846.926 828.044 861.386 999.146 898.398L1225.21 897.549L1424.61 907.902C1439.88 907.843 1465.3 904.84 1500.85 898.89L1718.36 851.892C1745.58 846.146 1767.41 842.825 1783.84 841.937C1815.35 839.314 1852.68 839.596 1895.83 842.779L2042.52 864.942C2052.37 867.122 2068.53 865.192 2091.01 859.153L2124.36 0.409668C2082.46 24.0413 2032.57 39.4843 1974.69 46.7387C1950.26 52.3704 1893.97 52.767 1805.82 47.9253C1795.96 50.8985 1768.79 66.076 1724.29 93.4643C1711.66 98.5453 1701.84 101.601 1694.81 102.63C1683.11 104.839 1667.64 104.872 1648.4 102.731C1598.18 88.6914 1565.73 82.3156 1551.04 83.6072C1484.61 108.753 1441.42 123.278 1421.44 127.189C1401.44 131.539 1363.48 133.503 1307.59 133.083C1255.26 154.981 1209.21 169.548 1169.43 176.79C1134.38 184.549 1067.29 184.434 968.163 176.445L785.886 222.929C771.128 226.351 733.282 226.541 672.35 223.505C609.41 239.545 566.932 248.704 544.911 250.989C517.078 255.168 492.914 254.044 472.408 247.626C447.919 241.053 404.716 222.974 342.794 193.39C270.215 213.091 208.612 225.777 157.983 231.448C117.573 234.103 73.3254 231.111 25.2409 222.463L0.108154 869.807C48.3226 875.642 107.225 885.525 176.817 899.457C196.944 901.811 224.625 903.342 259.873 904.053Z" fill="#005000"/>
</g>
</g>
</g>
<mask id="mask3_88_3227" style="mask-type:luminance" maskUnits="userSpaceOnUse" x="0" y="37" width="2124" height="845">
<path d="M0 37.7634H2123.88V881.146H0V37.7634Z" fill="white"/>
</mask>
<g mask="url(#mask3_88_3227)">
<mask id="mask4_88_3227" style="mask-type:luminance" maskUnits="userSpaceOnUse" x="-1" y="-30" width="2126" height="961">
<path d="M2088.3 930.098L-0.790161 900.336L35.3071 -29.2173L2124.4 0.544339L2088.3 930.098Z" fill="white"/>
</mask>
<g mask="url(#mask4_88_3227)">
<mask id="mask5_88_3227" style="mask-type:luminance" maskUnits="userSpaceOnUse" x="-1" y="-30" width="2126" height="961">
<path d="M2088.3 930.098L-0.790161 900.336L35.3071 -29.2173L2124.4 0.544339L2088.3 930.098Z" fill="white"/>
</mask>
<g mask="url(#mask5_88_3227)">
<path d="M260.955 876.196L271.72 875.777C310.344 873.275 428.35 859.707 625.738 835.069C650.627 832.883 676.149 831.555 702.305 831.08C729.694 823.583 828.986 837.118 1000.18 871.686L1226.23 871.122L1425.66 880.943C1440.93 880.903 1466.34 878.14 1501.87 872.649L1719.25 829.198C1746.45 823.885 1768.26 820.823 1784.69 820.01C1816.19 817.607 1853.52 817.905 1896.68 820.908L2043.43 841.652C2053.28 843.684 2069.43 841.908 2091.9 836.318L2122.88 38.3994C2081.05 60.3166 2031.2 74.6156 1973.35 81.2963C1948.94 86.5051 1892.65 86.8166 1804.49 82.2305C1794.64 84.9841 1767.51 99.0602 1723.09 124.462C1710.47 129.173 1700.66 132.002 1693.63 132.949C1681.94 134.991 1666.47 135.008 1647.23 132.998C1596.97 119.899 1564.5 113.946 1549.82 115.129C1483.46 138.427 1440.3 151.883 1420.34 155.495C1400.35 159.518 1362.41 161.304 1306.5 160.855C1254.24 181.15 1208.23 194.642 1168.48 201.329C1133.45 208.505 1066.36 208.331 967.216 200.808L785.074 243.817C770.327 246.98 732.481 247.121 671.544 244.239C608.652 259.079 566.201 267.547 544.186 269.648C516.369 273.503 492.199 272.434 471.678 266.448C447.173 260.315 403.921 243.472 341.922 215.92C269.398 234.153 207.832 245.882 157.22 251.1C116.821 253.526 72.5678 250.701 24.4617 242.617L1.104 844.11C49.3347 849.582 108.265 858.822 177.888 871.84C198.021 874.049 225.708 875.498 260.955 876.196Z" fill="#006738"/>
</g>
</g>
</g>
</svg>
