<svg width="1000" height="477" viewBox="0 0 1000 477" fill="none" xmlns="http://www.w3.org/2000/svg">
<mask id="mask0_65_135" style="mask-type:luminance" maskUnits="userSpaceOnUse" x="0" y="-1" width="1000" height="478">
<path d="M1000 476.165L0 476.165V-0.000115871L1000 -0.000115871V476.165Z" fill="white"/>
</mask>
<g mask="url(#mask0_65_135)">
<mask id="mask1_65_135" style="mask-type:luminance" maskUnits="userSpaceOnUse" x="-6" y="-26" width="1027" height="514">
<path d="M892.887 487.38L-5.89371 286.284L121.326 -25.9451L1020.11 175.152L892.887 487.38Z" fill="white"/>
</mask>
<g mask="url(#mask1_65_135)">
<mask id="mask2_65_135" style="mask-type:luminance" maskUnits="userSpaceOnUse" x="-6" y="-26" width="1027" height="514">
<path d="M892.887 487.38L-5.89371 286.284L121.326 -25.9451L1020.11 175.152L892.887 487.38Z" fill="white"/>
</mask>
<g mask="url(#mask2_65_135)">
<path d="M834.442 474.303L861.656 475.994C874.595 472.296 887.611 469.667 900.707 468.107L999.824 224.846C974.54 229.632 953.396 220.739 936.378 198.167C930.877 204.208 919.624 203.99 902.622 197.514C901.199 197.197 898.201 194.467 893.627 189.325L869.06 158.731C815.25 177.546 780.586 183.569 765.06 176.802C761.154 177.577 755.52 166.482 748.15 143.517C726.501 141.1 704.254 126.454 681.408 99.5831L673.629 101.322C660.698 112.094 648.739 121.002 637.756 128.04C631.302 132.218 626.266 134.347 622.661 134.423C615.524 134.579 609.764 132.003 605.377 126.7L583.427 84.4994L530.231 100.273C521.717 100.855 510.46 99.4389 496.448 96.0298C463.142 108.397 437.874 113.971 420.635 112.747C412.811 111.54 407.12 107.597 403.564 100.923L397.518 57.3426C381.264 56.9383 371.731 56.2401 368.919 55.2536C351.772 60.7488 338.566 63.3071 329.3 62.9283C313.743 62.3968 294.136 57.0457 270.481 46.8778C240.845 49.306 222.58 49.388 215.687 47.1238C211.654 46.5584 200.035 42.3974 180.824 34.6436C168.346 34.3722 155.899 32.074 143.486 27.7519C122.932 15.9473 111.908 6.71218 110.416 0.0494742L0.263031 270.388C6.50387 271.802 13.2979 274.459 20.6411 278.36C25.7948 281.068 34.6869 287.677 47.3211 298.187L247.421 342.957L358.803 348.565L374.656 351.333L420.856 365.947C458.957 361.939 488.289 362.191 508.854 366.699C522.224 369.936 531.906 373.328 537.899 376.876C540.84 377.814 552.654 387.202 573.345 405.033C576.744 407.331 580.295 409.115 584.003 410.393C589.061 412.227 597.618 414.022 609.672 415.775L711.059 426.833C719.734 428.261 728.157 430.03 736.332 432.145C743.076 433.928 749.595 436.229 755.886 439.045L801.269 466.88L834.442 474.303Z" fill="#EB7A19"/>
</g>
</g>
</g>
<mask id="mask3_65_135" style="mask-type:luminance" maskUnits="userSpaceOnUse" x="3" y="14" width="993" height="450">
<path d="M995.117 463.862L3.90625 463.862V14.4729L995.117 14.4729V463.862Z" fill="white"/>
</mask>
<g mask="url(#mask3_65_135)">
<mask id="mask4_65_135" style="mask-type:luminance" maskUnits="userSpaceOnUse" x="-6" y="-26" width="1027" height="514">
<path d="M892.887 487.38L-5.89371 286.284L121.326 -25.9451L1020.11 175.152L892.887 487.38Z" fill="white"/>
</mask>
<g mask="url(#mask4_65_135)">
<mask id="mask5_65_135" style="mask-type:luminance" maskUnits="userSpaceOnUse" x="-6" y="-26" width="1027" height="514">
<path d="M892.887 487.38L-5.89371 286.284L121.326 -25.9451L1020.11 175.152L892.887 487.38Z" fill="white"/>
</mask>
<g mask="url(#mask5_65_135)">
<path d="M839.607 461.619L866.665 463.696C879.372 460.578 892.189 458.433 905.125 457.265L994.766 237.255C969.86 241.127 948.563 232.599 930.878 211.669C925.636 217.074 914.467 216.656 897.369 210.414C895.947 210.095 892.872 207.545 888.153 202.765L862.69 174.37C809.982 190.483 775.806 195.3 760.166 188.821C756.317 189.451 750.332 179.218 742.199 158.119C720.638 155.49 698.048 141.693 674.427 116.724L666.767 118.16C654.324 127.737 642.78 135.629 632.137 141.834C625.881 145.52 620.964 147.363 617.39 147.363C610.313 147.363 604.507 144.901 599.968 139.977L576.687 101.044L524.479 114.392C516.056 114.756 504.833 113.244 490.814 109.858C458.218 120.492 433.346 125.08 416.206 123.627C408.398 122.372 402.615 118.663 398.846 112.503L391.293 72.6232C375.156 71.9335 365.673 71.1109 362.846 70.1554C346.035 74.8338 333.027 76.9086 323.818 76.38C308.369 75.5913 288.727 70.325 264.896 60.584C235.584 62.2179 217.468 61.9352 210.552 59.7331C206.532 59.1395 194.855 55.1142 175.522 47.6628C163.132 47.1709 150.7 44.8304 138.233 40.6439C117.42 29.4697 106.159 20.8282 104.443 14.7195L4.81802 259.219C11.0551 260.632 17.891 263.187 25.3144 266.891C30.5215 269.463 39.5814 275.668 52.4903 285.505L252.59 330.275L363.281 337.574L379.108 340.412L425.461 354.651C463.112 351.742 492.218 352.545 512.783 357.062C526.161 360.279 535.889 363.561 541.958 366.916C544.91 367.832 556.965 376.626 578.125 393.301C581.577 395.464 585.167 397.162 588.89 398.398C593.971 400.173 602.524 401.979 614.548 403.814L715.519 415.89C724.175 417.363 732.594 419.143 740.78 421.232C747.536 422.991 754.082 425.218 760.426 427.912L806.438 454.198L839.607 461.619Z" fill="#EF9C00"/>
</g>
</g>
</g>
</svg>
