<svg width="472" height="1000" viewBox="0 0 472 1000" fill="none" xmlns="http://www.w3.org/2000/svg">
<mask id="mask0_66_184" style="mask-type:luminance" maskUnits="userSpaceOnUse" x="-1" y="2" width="473" height="998">
<path d="M-0.000106812 2.47681L472 2.47681V1000H-0.000106812L-0.000106812 2.47681Z" fill="white"/>
</mask>
<g mask="url(#mask0_66_184)">
<mask id="mask1_66_184" style="mask-type:luminance" maskUnits="userSpaceOnUse" x="-56" y="-15" width="573" height="1031">
<path d="M516.118 30.7786L450.186 1015.77L-55.1207 970.276L10.8121 -14.7104L516.118 30.7786Z" fill="white"/>
</mask>
<g mask="url(#mask1_66_184)">
<mask id="mask2_66_184" style="mask-type:luminance" maskUnits="userSpaceOnUse" x="-56" y="-15" width="573" height="1031">
<path d="M516.118 30.7786L450.186 1015.77L-55.1207 970.276L10.8121 -14.7104L516.118 30.7786Z" fill="white"/>
</mask>
<g mask="url(#mask2_66_184)">
<path d="M471.929 478.575L470.461 473.479L454.038 420.666L446.673 328.021C445.245 325.941 452.916 313.724 469.685 291.372C471.176 287.319 471.543 283.33 470.788 279.405L447.174 226.408L439.194 189.812L401.328 140.673C399.672 138.305 397.729 133.698 395.497 126.848C394.523 124.1 394.279 121.512 394.758 119.081L403.258 93.9967C404.359 88.3563 404.786 83.0133 404.538 77.9726C404.486 75.7885 403.94 71.9911 402.897 66.5853L392.535 22.9707L9.66087 2.53003C12.852 16.0822 12.3326 30.6091 8.10495 46.1156C26.4966 72.5378 37.0877 93.3292 39.8763 108.487C42.669 120.958 38.5352 137.154 27.4747 157.072C37.8239 175.968 44.9299 193.281 48.7926 209.01L53.185 269.57C50.0857 282.147 48.6362 289.355 48.8343 291.193C53.7482 310.582 56.105 322.755 55.909 327.719C56.0237 331.335 54.6617 335.028 51.8252 338.794C34.9123 351.71 26.3401 360.001 26.1128 363.668C27.4289 393.731 25.2285 414.326 19.5095 425.46C22.5609 446.048 23.6851 459.663 22.8779 466.305C22.5025 471.979 15.3319 480.389 1.36608 491.537C0.819632 492.357 0.421265 494.628 0.170982 498.348C0.175154 502.247 6.87856 516.979 20.2833 542.55C22.5817 563.037 29.6251 583.18 41.4092 602.982C42.2122 603.78 43.3573 613.126 44.8444 631.015C58.9874 658.035 67.3135 676.432 69.8247 686.211C72.2045 697.41 73.3349 710.287 73.2181 724.843C73.7583 733.004 72.9845 739.261 70.9009 743.612L46.2814 765.869C43.7723 777.9 38.1493 793.053 29.4103 811.324L37.8865 869.722L37.1565 882.67C36.5204 901.04 28.2736 920.162 12.4182 940.04L16.4811 976.732L451.224 999.956L471.929 478.575Z" fill="#EF9C00"/>
</g>
</g>
</g>
<mask id="mask3_66_184" style="mask-type:luminance" maskUnits="userSpaceOnUse" x="33" y="0" width="413" height="999">
<path d="M33.638 0H445.837V998.142H33.638V0Z" fill="white"/>
</mask>
<g mask="url(#mask3_66_184)">
<mask id="mask4_66_184" style="mask-type:luminance" maskUnits="userSpaceOnUse" x="-56" y="-15" width="573" height="1031">
<path d="M516.118 30.7784L450.186 1015.77L-55.1208 970.276L10.8121 -14.7107L516.118 30.7784Z" fill="white"/>
</mask>
<g mask="url(#mask4_66_184)">
<mask id="mask5_66_184" style="mask-type:luminance" maskUnits="userSpaceOnUse" x="-56" y="-15" width="573" height="1031">
<path d="M516.118 30.7784L450.186 1015.77L-55.1208 970.276L10.8121 -14.7107L516.118 30.7784Z" fill="white"/>
</mask>
<g mask="url(#mask5_66_184)">
<path d="M445.38 474.838L444.127 469.734L430.071 416.873L424.127 323.994C422.89 321.916 429.648 309.607 444.396 287.069C445.716 282.994 446.058 278.991 445.42 275.058L425.093 222.061L418.318 185.41L385.536 136.38C384.103 134.017 382.43 129.409 380.517 122.554C379.683 119.807 379.483 117.211 379.915 114.771L387.461 89.5484C388.449 83.8813 388.85 78.519 388.662 73.4663C388.627 71.2725 388.17 67.4702 387.287 62.0523L378.473 18.3773L44.5106 0.546387C47.2241 14.1179 46.6943 28.6956 42.9255 44.2795C58.8372 70.6557 67.9684 91.4374 70.3231 106.622C72.6945 119.113 69.005 135.386 59.2502 155.442C68.1811 174.325 74.2922 191.643 77.5813 207.394L81.0999 268.111C78.3301 280.749 77.0265 287.988 77.1913 289.831C81.3773 309.244 83.3712 321.442 83.173 326.42C83.2544 330.048 82.0468 333.76 79.5544 337.558C64.7272 350.633 57.2062 359.01 56.9872 362.691C57.9821 392.835 55.9548 413.511 50.9053 424.717C53.4624 445.349 54.3718 458.997 53.6334 465.666C53.2747 471.36 46.9759 479.847 34.7329 491.128C34.2511 491.953 33.8903 494.233 33.6525 497.966C33.6358 501.877 39.409 516.609 50.9721 542.165C52.8721 562.698 58.9123 582.856 69.0926 602.636C69.7892 603.432 70.7382 612.8 71.9437 630.735C84.1429 657.737 91.3135 676.134 93.4534 685.925C95.4703 697.141 96.3901 710.05 96.2128 724.654C96.6424 732.836 95.9354 739.118 94.0937 743.496L72.4964 765.995C70.2459 778.081 65.2611 793.319 57.5399 811.709L64.6333 870.228L63.9284 883.219C63.2776 901.652 55.9819 920.893 42.0453 940.942L45.3991 977.718L424.607 997.978L445.38 474.838Z" fill="#91007B"/>
</g>
</g>
</g>
</svg>
