<svg width="98" height="115" viewBox="0 0 98 115" fill="none" xmlns="http://www.w3.org/2000/svg">
<mask id="mask0_79_970" style="mask-type:luminance" maskUnits="userSpaceOnUse" x="0" y="-1" width="98" height="116">
<path d="M0.480057 -0.00976562H97.1426V114.588H0.480057V-0.00976562Z" fill="white"/>
</mask>
<g mask="url(#mask0_79_970)">
<path d="M51.3564 0.000732422L17.1848 1.62086C16.022 1.52739 14.4803 1.18467 12.5683 0.592701C10.2514 2.27514 6.22055 4.05623 0.480057 5.93599V114.271C6.76747 113.539 11.5046 112.34 14.6999 110.668L22.7401 111.052C26.7881 109.131 29.3332 108.243 30.3797 108.393C33.8464 108.165 40.9004 109.042 51.5459 111.026C55.2064 110.548 59.3535 110.335 63.9786 110.387L70.3866 109.38L74.8222 109.479L81.2044 108.362L86.8717 108.321C89.6579 107.375 92.0696 106.674 94.1108 106.207L96.8885 106.69V5.27652C96.0918 5.46865 94.5888 5.48942 92.3753 5.32845L77.897 3.74987L67.3075 1.57931L51.3564 0.000732422Z" fill="#0A694F"/>
</g>
<mask id="mask1_79_970" style="mask-type:luminance" maskUnits="userSpaceOnUse" x="1" y="-1" width="96" height="114">
<path d="M1.22938 -0.00976562H96.0401V112.251H1.22938V-0.00976562Z" fill="white"/>
</mask>
<g mask="url(#mask1_79_970)">
<path d="M51.2918 0.000732422L17.9169 1.58451C16.78 1.49104 15.277 1.15351 13.408 0.577123C11.1428 2.21802 7.20672 3.96277 1.59973 5.80098V111.613C7.74072 110.901 12.3702 109.728 15.4923 108.097L23.343 108.471C27.2963 106.591 29.7811 105.724 30.8061 105.87C34.1909 105.646 41.0812 106.508 51.477 108.445C55.0556 107.978 59.1037 107.77 63.6212 107.822L69.8784 106.835L74.215 106.934L80.4508 105.844L85.9845 105.802C88.7062 104.883 91.0618 104.192 93.0557 103.735L95.7688 104.208V5.1519C94.9893 5.34403 93.5208 5.3596 91.359 5.20382L77.2166 3.66159L66.8725 1.54297L51.2918 0.000732422Z" fill="#006738"/>
</g>
<path d="M34.4556 80.6787C31.4799 80.6787 28.8917 79.8843 26.6868 78.2901C24.4905 76.7011 22.7808 74.219 21.5535 70.8541C20.3348 67.4893 19.7276 63.2313 19.7276 58.0801C19.7276 52.9445 20.3348 48.6917 21.5535 45.3268C22.7808 41.9516 24.4905 39.4642 26.6868 37.8701C28.8917 36.2811 31.4799 35.4814 34.4556 35.4814C37.44 35.4814 40.0368 36.2811 42.2417 37.8701C44.4466 39.4642 46.1562 41.9516 47.375 45.3268C48.5894 48.6917 49.2009 52.9445 49.2009 58.0801C49.2009 63.2313 48.5894 67.4893 47.375 70.8541C46.1562 74.219 44.4466 76.7011 42.2417 78.2901C40.0368 79.8843 37.44 80.6787 34.4556 80.6787ZM34.4556 73.3259C36.0835 73.3259 37.4443 72.8481 38.5381 71.8927C39.6406 70.9372 40.4846 69.3379 41.0703 67.0946C41.656 64.8514 41.9488 61.85 41.9488 58.0801C41.9488 54.3154 41.656 51.3088 41.0703 49.0656C40.4846 46.8223 39.6406 45.2333 38.5381 44.2883C37.4443 43.3328 36.0835 42.8551 34.4556 42.8551C32.8235 42.8551 31.4583 43.3328 30.3559 44.2883C29.262 45.2333 28.4266 46.8223 27.8409 49.0656C27.2552 51.3088 26.9624 54.3154 26.9624 58.0801C26.9624 61.85 27.2552 64.8514 27.8409 67.0946C28.4266 69.3379 29.262 70.9372 30.3559 71.8927C31.4583 72.8481 32.8235 73.3259 34.4556 73.3259Z" fill="white"/>
<path d="M54.0435 76.5661C54.0435 74.1463 54.2588 72.1004 54.698 70.4387C55.133 68.7771 55.8522 67.2608 56.8513 65.8899C57.8504 64.519 59.2629 63.0391 61.0888 61.445L65.9465 57.2077C67.2772 56.0757 68.3107 55.0839 69.0471 54.2375C69.7921 53.3963 70.3477 52.5135 70.718 51.5996C71.097 50.6753 71.2865 49.6212 71.2865 48.4424C71.2865 46.6561 70.8386 45.2801 69.9429 44.309C69.0471 43.3432 67.6949 42.8551 65.8948 42.8551C64.1722 42.8551 62.6391 43.3536 61.2955 44.3506C59.9519 45.3372 58.8365 46.6925 57.9537 48.4217L57.4714 48.5671L53.5095 43.2082C54.8057 40.8819 56.4938 39.0125 58.5738 37.6001C60.6625 36.1877 63.1947 35.4814 66.1704 35.4814C68.9007 35.4814 71.1831 36.0319 73.009 37.1223C74.8436 38.2024 76.2044 39.6772 77.0916 41.5465C77.9873 43.4159 78.4352 45.5657 78.4352 47.9855C78.4352 50.0781 78.0734 51.9891 77.3499 53.7182C76.6265 55.437 75.6188 57.0312 74.3354 58.4955C73.0607 59.9495 71.4286 61.5177 69.4433 63.1897L65.1369 66.8246C63.8363 67.9462 62.932 68.9432 62.4152 69.8156C61.8984 70.688 61.64 71.6798 61.64 72.7858H78.0907V80.0556H54.0435V76.5661Z" fill="white"/>
</svg>
