<svg width="98" height="115" viewBox="0 0 98 115" fill="none" xmlns="http://www.w3.org/2000/svg">
<mask id="mask0_79_969" style="mask-type:luminance" maskUnits="userSpaceOnUse" x="0" y="0" width="98" height="115">
<path d="M0.480057 0.0231934H97.1426V114.481H0.480057V0.0231934Z" fill="white"/>
</mask>
<g mask="url(#mask0_79_969)">
<path d="M51.3564 0.0283203L17.1848 1.64844C16.022 1.55497 14.4803 1.21226 12.5683 0.620289C10.2514 2.30272 6.22055 4.08382 0.480057 5.96877V114.299C6.76747 113.567 11.5046 112.367 14.6999 110.7L22.7401 111.085C26.7881 109.158 29.3332 108.275 30.3797 108.421C33.8464 108.192 40.9004 109.07 51.5459 111.054C55.2064 110.576 59.3535 110.363 63.9786 110.415L70.3866 109.407L74.8222 109.506L81.2044 108.39L86.8717 108.353C89.6579 107.408 92.0696 106.702 94.1108 106.235L96.8885 106.718V5.30411C96.0918 5.50143 94.5888 5.51701 92.3753 5.35604L77.897 3.77745L67.3075 1.6069L51.3564 0.0283203Z" fill="#004AAD"/>
</g>
<mask id="mask1_79_969" style="mask-type:luminance" maskUnits="userSpaceOnUse" x="1" y="0" width="96" height="112">
<path d="M1.22938 0.0231934H96.0401V111.822H1.22938V0.0231934Z" fill="white"/>
</mask>
<g mask="url(#mask1_79_969)">
<path d="M51.2918 0.0285645L17.9169 1.61234C16.78 1.51887 15.277 1.18654 13.408 0.604955C11.1428 2.25104 7.20672 3.9906 1.59973 5.82882V111.641C7.74072 110.929 12.3702 109.756 15.4923 108.125L23.343 108.499C27.2963 106.624 29.7811 105.757 30.8061 105.903C34.1909 105.679 41.0812 106.536 51.477 108.473C55.0556 108.006 59.1037 107.798 63.6212 107.85L69.8784 106.863L74.215 106.962L80.4508 105.871L85.9845 105.835C88.7062 104.911 91.0618 104.22 93.0557 103.768L95.7688 104.241V5.17973C94.9893 5.37186 93.5208 5.38744 91.359 5.23165L77.2166 3.68942L66.8725 1.5708L51.2918 0.0285645Z" fill="#0769B2"/>
</g>
<path d="M35.2304 80.7085C32.2546 80.7085 29.6665 79.914 27.4616 78.3199C25.2653 76.7309 23.5556 74.2488 22.3283 70.8839C21.1096 67.5191 20.5023 63.261 20.5023 58.1099C20.5023 52.9743 21.1096 48.7215 22.3283 45.3566C23.5556 41.9813 25.2653 39.494 27.4616 37.8999C29.6665 36.3109 32.2546 35.5112 35.2304 35.5112C38.2148 35.5112 40.8116 36.3109 43.0165 37.8999C45.2214 39.494 46.931 41.9813 48.1497 45.3566C49.3642 48.7215 49.9757 52.9743 49.9757 58.1099C49.9757 63.261 49.3642 67.5191 48.1497 70.8839C46.931 74.2488 45.2214 76.7309 43.0165 78.3199C40.8116 79.914 38.2148 80.7085 35.2304 80.7085ZM35.2304 73.3557C36.8582 73.3557 38.2191 72.8779 39.3129 71.9225C40.4154 70.967 41.2594 69.3677 41.8451 67.1244C42.4308 64.8812 42.7236 61.8798 42.7236 58.1099C42.7236 54.3452 42.4308 51.3386 41.8451 49.0953C41.2594 46.8521 40.4154 45.2631 39.3129 44.3181C38.2191 43.3626 36.8582 42.8849 35.2304 42.8849C33.5983 42.8849 32.2331 43.3626 31.1307 44.3181C30.0368 45.2631 29.2014 46.8521 28.6157 49.0953C28.03 51.3386 27.7372 54.3452 27.7372 58.1099C27.7372 61.8798 28.03 64.8812 28.6157 67.1244C29.2014 69.3677 30.0368 70.967 31.1307 71.9225C32.2331 72.8779 33.5983 73.3557 35.2304 73.3557Z" fill="white"/>
<path d="M54.956 80.0856V72.8989H63.7584V45.5645L63.19 45.3775C61.9368 46.0993 60.7095 46.6757 59.5036 47.1015C58.3065 47.5169 56.937 47.8441 55.3867 48.0777V40.6625C59.4261 39.6396 62.6947 38.1389 65.1882 36.1553H70.8899V72.8989H78.7449V80.0856H54.956Z" fill="white"/>
</svg>
