<svg width="430" height="800" viewBox="0 0 430 800" fill="none" xmlns="http://www.w3.org/2000/svg">
<mask id="mask0_65_136" style="mask-type:luminance" maskUnits="userSpaceOnUse" x="26" y="0" width="404" height="791">
<path d="M26.692 0H430V790.06H26.692V0Z" fill="white"/>
</mask>
<g mask="url(#mask0_65_136)">
<path d="M88.8126 2.21105C80.3901 5.62073 75.5854 8.4259 73.5946 11.0349C70.6037 15.0438 62.9038 33.9906 61.9084 39.7016C61.3629 43.1113 61.272 49.8246 61.6357 56.8455C62.0903 66.2685 62.6311 68.8722 64.172 71.2797C65.4401 73.1834 66.3494 76.593 66.7083 80.7027C67.1629 85.1146 68.0674 88.4235 69.972 91.7271C73.9583 98.8488 74.4082 99.7502 77.7628 108.77L80.9308 117.09L75.1356 120.198C71.9628 121.905 66.9811 125.41 64.172 127.919C61.272 130.522 57.0177 133.831 54.7493 135.236C49.045 138.943 45.2405 144.06 41.3451 152.979C38.536 159.597 38.1723 161.501 38.1723 167.615C38.2633 173.528 38.895 176.137 42.0677 184.356L45.7813 194.081L45.6904 213.426C45.5994 228.666 45.2405 234.579 43.8814 241.196C42.2496 248.816 42.0677 253.928 42.0677 297.835C42.0677 362.19 42.3405 356.977 37.8086 370.611C35.636 376.926 32.4632 385.145 30.7452 388.857L27.5724 395.671L30.0178 399.182C31.9225 401.987 32.5542 404.394 33.2816 411.41C33.7314 416.225 34.5497 420.934 34.9996 421.835C35.4542 422.838 37.9905 424.943 40.7087 426.65C44.3313 429.052 46.6858 429.758 50.2222 429.758C54.0267 429.758 54.8403 429.455 54.8403 427.955C54.8403 425.346 53.0313 423.744 50.2222 423.744C48.7722 423.744 46.5087 422.641 45.1496 421.236L42.6133 418.829L48.0448 418.627C51.0358 418.532 53.9358 418.627 54.3904 418.728C58.6447 420.133 61.004 419.831 61.5447 417.927C61.9084 416.824 63.2675 415.721 64.8085 415.323C68.522 414.517 68.522 411.012 64.8994 409.406C63.0857 408.706 62.0903 407.401 61.7266 405.397C60.8221 400.386 61.0901 399.781 64.8085 398.583C67.7946 397.58 68.4311 396.875 68.2492 395.274C68.0674 394.171 67.072 392.665 65.8948 392.066C64.0811 391.063 63.9901 390.761 65.2583 389.658C67.1629 387.956 66.9811 385.951 64.8085 385.145C63.3585 384.647 62.9948 383.645 62.9948 379.832C62.9948 377.228 62.3631 372.716 61.7266 369.81C60.7312 365.7 60.6403 361.389 61.181 349.262C61.9994 334.122 63.7222 324.1 67.4357 312.969C69.8811 305.853 76.2219 273.973 77.8537 260.843C79.2128 250.216 80.6628 243.699 82.0219 241.997C83.0173 240.693 88.2718 253.626 90.2626 262.248C91.2627 266.459 92.44 274.174 92.8898 279.488C93.3444 284.7 94.2489 290.417 94.7944 292.018C96.0626 295.428 97.3307 316.077 97.7854 342.744C97.9624 353.97 98.5989 362.895 99.2306 365.196C100.322 368.606 100.231 369.11 98.7808 370.112C94.7035 372.615 93.6172 374.72 94.158 378.533C94.6126 381.741 94.3398 382.34 91.9853 383.846C88.7216 385.951 88.6355 387.054 91.5307 393.068L93.799 397.777L90.0807 403.292C85.9173 409.305 84.5582 416.023 86.4581 420.133C87.3673 421.936 87.1855 423.241 85.5536 427.854C84.4673 430.76 82.4718 437.277 81.1127 442.288C79.6627 447.198 77.49 454.214 76.131 457.724C73.5037 464.639 73.5037 467.948 76.131 476.571C76.8584 478.978 77.8537 487.696 78.3945 496.117C80.2082 524.29 80.2991 525.091 83.9218 531.608C85.7355 534.816 90.3535 545.141 94.158 554.362C97.9624 563.684 102.494 573.707 104.217 576.618C108.562 583.835 134.926 612.502 144.894 620.923C152.321 627.137 153.316 628.442 157.03 636.263C159.298 640.972 162.016 646.286 163.194 648.189C165.093 651.297 165.184 651.7 163.825 654.007C162.648 656.011 162.557 657.013 163.557 660.921C164.644 665.132 164.553 665.535 162.557 668.038C160.93 670.042 160.748 670.546 162.016 670.042C163.012 669.644 163.557 669.947 163.557 670.747C163.557 671.447 164.553 673.25 165.821 674.756C167.271 676.458 168.084 678.664 168.084 680.669C168.084 683.978 168.721 686.884 171.166 693.905L172.525 697.914L172.616 692.499C172.616 689.291 172.975 687.388 173.43 687.987C174.425 689.19 177.416 700.719 179.407 710.942C183.216 730.494 191.184 743.523 199.429 743.523C202.33 743.523 208.761 739.413 212.384 735.102C213.652 733.702 215.375 732.498 216.37 732.498C217.82 732.498 218.093 731.994 217.547 729.391C216.916 725.88 218.275 722.471 220.175 722.471C221.897 722.471 221.988 718.16 220.357 716.659C219.725 716.054 219.179 713.249 218.997 710.343C218.906 706.732 217.729 702.225 214.743 695.008C209.938 682.976 208.22 676.862 207.402 669.241C206.861 664.029 206.952 663.53 208.761 662.825C211.025 662.024 211.388 657.915 209.307 655.709C207.311 653.503 207.584 648.592 209.757 647.288C212.025 645.983 212.025 644.08 209.848 641.874C208.943 640.872 207.857 638.666 207.584 636.762C206.407 630.245 199.702 623.929 188.739 619.321C182.671 616.712 182.398 616.415 179.498 610.1C177.871 606.589 172.162 594.557 166.816 583.331C159.93 568.998 156.489 560.678 155.221 555.264C153.135 546.244 148.244 535.415 140.362 522.28C137.194 517.169 135.017 512.958 135.38 512.958C135.835 512.958 136.648 513.663 137.371 514.565C139.367 517.169 147.521 521.278 151.053 521.379C153.68 521.379 155.13 520.78 156.944 518.775L159.389 516.066L157.757 509.151C156.216 502.634 156.216 502.034 157.848 495.517C159.207 489.705 159.839 488.502 162.198 487.399C163.643 486.693 169.08 481.783 174.152 476.47C183.034 467.349 183.484 466.946 186.111 467.948C188.471 468.85 205.139 486.895 218.906 503.339C221.625 506.542 226.338 511.457 229.506 514.263C232.679 516.967 236.575 521.379 238.116 523.988C243.82 533.109 248.261 538.926 249.802 539.021C250.706 539.021 252.429 541.328 254.152 544.939C255.688 548.147 260.22 555.264 264.297 560.678C272.629 572.105 277.07 579.121 281.329 587.642C282.96 590.951 285.947 595.862 288.033 598.672C290.115 601.377 292.292 604.887 292.833 606.388C293.469 607.894 296.097 610.598 298.724 612.603C306.874 618.52 311.678 624.131 313.76 630.547C316.933 639.869 319.919 645.883 329.705 662.327C334.869 670.848 342.296 683.479 346.373 690.293C354.255 703.524 356.069 708.44 357.428 720.265C358.332 728.187 361.141 736.406 363.859 739.111C364.764 740.018 365.855 742.42 366.123 744.424C366.487 746.429 368.391 751.445 370.382 755.555C377.991 771.193 380.982 778.208 381.618 782.016C382.705 789.535 383.064 789.636 404.354 789.636C414.681 789.636 424.65 789.339 426.55 789.036C429.722 788.432 429.904 788.135 429.904 784.725C429.904 780.112 427.368 774.3 418.759 758.36C414.863 751.445 411.786 745.426 411.786 745.029C411.786 744.726 412.6 744.928 413.504 745.527C414.5 746.031 415.95 746.232 416.768 745.93C418.759 745.029 416.95 742.923 413.595 742.123C411.695 741.72 410.245 740.415 408.977 738.013C407.891 736.104 406.709 734.503 406.259 734.503C404.354 734.503 396.2 724.878 394.482 720.567C393.482 718.16 391.673 714.554 390.405 712.65C386.236 706.631 381.886 693.199 381.886 686.285C381.886 678.967 377.45 660.72 371.019 641.672C364.496 622.529 361.596 615.811 355.073 604.988C351.9 599.674 348.551 593.359 347.55 590.951C346.555 588.342 343.928 584.736 340.851 581.831C338.042 579.222 335.505 576.215 335.233 575.112C334.96 574.11 333.873 572.906 332.969 572.604C329.887 571.501 316.024 543.534 313.396 533.209C311.678 526.295 312.128 523.988 315.21 523.988C320.646 523.988 339.31 515.869 339.31 513.462C339.31 510.657 333.964 497.824 330.883 493.211C329.16 490.506 325.264 482.685 322.278 475.77C319.378 468.85 314.487 459.23 311.496 454.214C308.505 449.304 304.974 442.988 303.615 440.082C300.442 433.767 297.724 430.659 291.383 426.947L286.492 423.94L286.401 416.925C286.31 410.912 285.947 409.406 284.138 407.3C280.874 403.493 276.706 402.289 272.992 403.991L269.915 405.397L268.733 397.777C268.101 393.566 267.465 387.855 267.374 385.145C266.742 370.812 258.406 338.836 251.252 323.098C250.256 320.892 247.897 314.375 245.997 308.557C244.093 302.746 241.738 295.428 240.743 292.421C236.756 280.193 233.402 266.459 232.952 259.841C232.588 255.933 231.32 248.111 230.143 242.299C227.697 231.169 224.343 211.925 224.252 208.918C224.252 207.312 224.434 207.312 227.697 209.115C232.406 211.824 244.547 215.934 250.074 216.735C252.611 217.138 257.411 218.538 260.851 219.842C272.179 224.153 283.228 222.552 284.678 216.337C285.497 212.625 284.229 199.495 282.688 196.186C280.601 191.674 272.629 180.246 270.006 177.94C268.733 176.837 266.742 173.83 265.565 171.226C262.574 164.911 254.874 156.888 243.37 148.568C239.834 145.964 236.938 143.153 236.938 142.353C236.938 140.449 226.157 128.019 219.543 122.303C216.643 119.901 214.288 117.393 214.288 116.793C214.288 115.187 206.225 105.764 203.143 103.759C201.784 102.858 198.07 101.855 194.993 101.452C191.911 101.055 187.38 99.7502 184.843 98.5465C180.948 96.6428 178.957 96.3406 171.257 96.6428C166.271 96.8443 161.016 97.3428 159.48 97.8465C157.575 98.4458 155.944 98.2443 154.135 97.242C152.776 96.4413 150.871 95.9375 149.967 96.2398C145.076 97.645 139.912 81.4026 142.716 73.3849C144.712 67.6685 145.435 57.2432 144.712 46.818C143.985 37.5965 143.444 35.189 140.271 27.7757C136.103 17.8489 132.389 12.8378 126.049 8.32515C117.621 2.41256 112.19 0.408109 103.308 0.00509826C96.3354 -0.29716 94.2489 0.00509827 88.8126 2.21105Z" fill="black"/>
</g>
<path d="M43.5178 685.383C23.6771 689.291 8.72717 704.027 1.75469 726.485C-0.781625 734.502 -0.513637 750.74 2.20453 759.563C8.00456 778.208 19.5998 790.839 36.7224 797.256C44.3313 800.161 58.7357 799.859 67.3448 796.752C85.5537 790.139 98.1443 774.199 102.131 752.744C104.576 739.514 103.308 729.688 97.5126 716.457C93.7082 707.538 84.2855 696.508 76.7675 692.096C67.3448 686.486 53.0314 683.575 43.5178 685.383Z" fill="black"/>
</svg>
