<svg width="647" height="1097" viewBox="0 0 647 1097" fill="none" xmlns="http://www.w3.org/2000/svg">
<mask id="mask0_79_901" style="mask-type:luminance" maskUnits="userSpaceOnUse" x="0" y="0" width="647" height="1097">
<path d="M0 0H647V1097H0V0Z" fill="white"/>
</mask>
<g mask="url(#mask0_79_901)">
<path fill-rule="evenodd" clip-rule="evenodd" d="M286.637 186.917C271.012 205.508 310.081 213.114 338.212 207.198C326.493 211.423 290.55 221.564 267.887 197.057C249.131 204.663 238.193 213.114 224.131 227.487C209.281 240.163 203.031 265.523 203.812 302.713C208.499 312.009 215.531 318.769 224.912 322.995C217.093 321.304 210.062 317.924 203.812 313.699C204.593 323.84 203.812 334.825 200.687 344.974C206.937 349.199 214.749 351.734 222.569 351.734C217.881 353.424 206.156 352.579 201.468 350.889C196.781 365.255 198.343 377.939 193.656 387.235C205.375 388.08 220.225 383.854 237.412 375.404C225.694 387.235 211.624 392.305 193.656 392.305C188.969 399.065 185.062 406.671 181.149 415.974C189.75 413.439 196.781 412.594 203.812 412.594C196 413.439 187.406 417.664 178.806 425.27C171.775 437.101 166.306 451.474 163.181 467.531C159.275 476.826 154.587 485.277 149.119 492.89C154.587 490.355 160.837 489.51 166.306 490.355C156.15 490.355 146.768 497.115 138.175 511.482C142.081 510.637 155.369 508.101 176.462 503.031C170.212 508.946 156.15 514.017 135.05 517.397C129.581 520.777 126.456 525.855 124.894 534.306C132.706 539.376 138.956 546.137 145.206 553.742C139.737 547.827 133.487 542.756 125.675 540.221C122.55 545.292 117.863 546.982 112.387 546.982C106.918 546.982 101.45 549.517 96.7623 552.052C95.1998 552.897 89.7312 553.742 79.5751 554.587C74.8808 553.742 74.0996 555.432 77.2245 560.503C78.787 564.736 86.6063 566.426 100.668 563.891C101.45 567.271 106.918 568.961 114.738 569.806H101.45C99.106 573.186 95.1998 579.102 88.1687 588.398C82.7001 593.468 75.6621 603.616 69.4122 618.827C69.4122 624.743 72.5371 626.433 80.3564 623.898C85.0438 613.757 92.0749 605.306 99.8872 600.236L99.106 604.461C97.5435 607.842 95.1998 614.602 91.2937 623.898C89.7312 627.278 87.3875 634.039 83.4813 644.187C82.7001 647.567 85.0438 650.947 88.1687 651.792C91.2937 653.483 94.4186 651.792 95.9811 648.412C97.5435 639.961 101.45 634.884 103.793 626.433C106.137 620.518 110.825 612.912 113.168 608.687C113.168 612.912 113.168 619.672 112.387 626.433C110.043 633.193 110.043 641.652 110.825 650.102C110.825 651.792 112.387 654.328 114.738 654.328C116.3 654.328 117.863 653.483 118.644 651.792L121.769 639.961C122.55 628.968 124.112 619.672 124.894 610.377C125.675 606.151 127.237 605.306 129.581 607.842C131.925 611.222 133.487 619.672 134.268 632.348C134.268 638.271 136.612 640.807 140.518 640.807C143.643 639.961 144.424 634.884 144.424 626.433C142.081 617.137 142.081 606.996 143.643 595.158L134.268 593.468H144.424C149.9 586.707 152.244 577.412 152.244 564.736C153.025 565.581 154.587 565.581 156.15 563.891L158.494 557.968C155.369 550.362 152.244 543.602 148.338 537.686C153.806 542.756 159.275 549.517 162.4 557.123C174.118 546.137 183.5 532.616 191.312 518.242C181.149 524.165 170.212 528.39 159.275 530.926C167.087 528.39 178.806 520.777 194.437 508.946C219.444 477.671 235.85 448.087 245.224 420.2L251.474 349.199L249.131 420.2C256.95 431.185 283.512 448.087 327.275 469.221C299.925 463.305 274.137 450.629 249.912 433.721C241.318 448.939 236.631 464.996 234.287 482.742C245.224 482.742 255.387 479.362 263.2 472.601C257.731 479.362 251.474 484.432 244.443 489.51C256.169 488.665 267.887 485.277 278.043 478.517C267.106 490.355 253.044 497.961 237.412 499.651C231.162 503.031 227.256 508.946 224.131 517.397C234.287 524.165 242.099 533.461 247.568 545.292C241.318 539.376 234.287 535.151 225.694 532.616C218.662 539.376 213.187 547.827 209.281 558.813C212.406 566.426 230.381 578.257 262.418 593.468C243.662 589.243 225.694 580.792 210.062 569.806C199.125 587.552 188.969 612.067 180.368 643.342C178.024 657.708 173.337 680.532 164.743 710.109L174.9 718.568C174.118 724.483 170.212 735.469 164.743 752.378C160.837 759.138 158.494 771.814 156.15 792.103C163.962 803.934 174.118 814.075 185.062 822.526C174.118 819.145 163.181 814.075 154.587 806.469C167.087 823.378 183.5 836.054 203.031 841.97C184.281 840.279 166.306 830.984 153.806 815.765L148.338 838.589C140.518 844.505 129.581 891.836 115.519 981.435C113.168 992.421 103.793 1005.1 88.95 1019.47C78.0058 1027.92 60.0374 1038.06 32.6873 1050.75C-5.60009 1067.65 -11.0687 1082.01 29.5623 1081.17C38.1559 1082.86 74.8808 1082.01 106.137 1078.63C112.387 1077.79 120.206 1081.17 125.675 1080.32C142.081 1076.94 153.806 1080.32 153.806 1060.04C153.025 1052.44 152.244 1043.13 151.462 1032.99C149.9 1035.53 147.549 1037.22 145.206 1037.22C149.119 1033.84 152.244 1027.92 154.587 1019.47C163.962 983.126 176.462 951.006 192.875 923.956C206.156 915.505 215.531 895.216 221.006 863.949C229.6 835.209 231.162 814.92 228.037 802.244C224.912 804.779 221.006 807.314 217.093 808.16C228.037 798.864 239.756 779.42 251.474 749.842C239.756 742.229 227.256 736.314 214.749 731.244C230.381 734.624 245.224 738.849 260.075 743.92C278.043 718.568 297.581 694.898 320.237 674.617C316.331 663.623 313.987 652.637 313.206 641.652C317.893 658.553 335.868 691.518 367.125 741.384C391.35 732.934 410.881 727.863 425.724 726.173C423.38 727.863 419.474 731.244 414.006 736.314C418.693 752.378 435.106 780.265 464.018 820.835C470.268 828.449 477.299 839.434 483.549 853.801C486.674 879.16 506.212 911.28 540.593 949.315C546.062 955.231 552.312 963.682 560.124 975.52C563.249 979.745 566.381 984.816 568.724 990.731C576.537 989.886 585.13 987.351 592.943 982.281C586.693 988.196 580.443 991.576 573.412 994.956C578.099 1002.56 580.443 1011.87 580.443 1022.01C580.443 1026.23 580.443 1031.3 581.224 1036.37C583.568 1033.84 586.693 1032.15 589.036 1031.3C586.693 1034.68 585.13 1038.91 583.568 1043.13C589.818 1038.06 596.068 1033.84 603.106 1030.46C596.068 1039.75 589.036 1049.9 582.787 1060.04C589.036 1050.75 597.63 1043.13 607.012 1038.06C596.849 1048.2 588.255 1060.89 582.787 1075.25C585.13 1071.03 588.255 1066.8 591.38 1062.58C587.474 1070.18 585.13 1077.79 585.13 1082.86C599.199 1097.23 613.262 1100.61 628.886 1092.16C641.393 1087.94 647.643 1080.32 647.643 1070.18C647.643 1071.87 646.862 1071.87 645.299 1072.72C647.643 1067.65 646.862 1060.89 644.518 1052.44C641.393 1040.6 632.792 1025.39 620.293 1005.94C612.48 995.802 602.324 968.752 589.036 923.111C569.506 862.259 548.405 819.99 524.961 796.329C516.368 809.005 505.431 818.3 492.924 825.068C505.431 816.61 514.805 803.089 518.712 787.033C514.805 794.638 507.774 799.709 500.743 801.399C507.774 795.484 513.243 788.723 515.587 780.265C516.368 776.04 514.024 770.969 509.337 764.209C499.962 748.997 493.705 735.469 491.361 723.638C481.987 716.032 470.268 711.807 458.543 711.807C469.487 707.574 480.424 709.264 489.799 715.187C478.862 659.398 464.8 615.447 446.043 585.017C448.387 580.792 446.824 574.031 440.574 564.736C429.637 546.137 413.224 529.235 395.256 519.932C408.537 521.622 428.075 532.616 435.887 548.672C437.449 541.911 438.231 533.461 439.012 521.622C431.981 497.961 421.037 475.981 406.974 457.39C422.599 468.376 433.543 485.277 438.231 503.876C435.887 487.82 428.856 461.615 416.349 426.96L439.793 475.136C441.356 448.087 444.481 415.974 447.605 376.249L441.356 353.424L452.293 378.784C463.237 387.235 475.737 393.995 489.018 398.22C480.424 397.375 471.831 396.53 463.237 394.84C466.362 396.53 478.862 402.446 499.181 413.439L467.143 406.671C474.174 414.284 485.112 426.96 498.399 445.552L478.862 425.27C479.643 430.34 479.643 434.566 478.081 437.101C481.987 443.861 497.618 464.995 524.961 500.496C512.462 490.355 501.524 479.362 492.143 465.841L496.837 482.742C500.743 490.355 517.149 504.721 543.718 526.7C531.999 519.087 519.493 510.637 508.556 500.496C507.774 506.411 509.337 514.017 514.024 522.467C517.93 532.616 521.837 542.756 525.743 552.897C528.868 552.052 531.999 550.362 534.343 548.672C531.999 552.897 528.086 557.968 524.18 561.355C526.524 562.2 528.868 562.2 531.218 562.2C526.524 563.046 521.837 563.046 517.93 561.355C509.337 559.658 507.774 562.2 513.243 569.806C515.587 574.876 525.743 575.722 542.937 574.031C553.093 579.102 554.655 583.327 553.874 592.623C553.093 597.693 553.874 601.926 547.624 606.996C542.937 612.067 546.843 617.982 553.093 612.912C555.436 611.222 560.905 606.151 563.249 602.771C564.818 596.848 564.818 592.623 564.03 585.017C565.599 589.243 567.162 601.926 562.468 607.842C557.78 612.067 556.999 613.757 553.874 616.292C546.843 621.363 555.436 626.433 557.78 623.053L563.249 618.827L569.506 612.912L564.03 619.672C558.561 631.503 568.724 628.968 571.068 623.053L571.849 621.363C573.412 617.982 575.755 617.137 577.318 612.067C583.568 590.088 568.724 557.123 549.187 547.827C555.436 548.672 561.686 552.897 565.599 558.813C570.287 551.207 567.943 534.306 556.999 507.256C558.561 497.115 549.968 465.841 531.218 414.284C531.218 404.981 526.524 394.84 515.587 384.699L512.462 388.925C513.243 381.319 513.243 361.875 503.868 336.523C502.306 323.84 495.275 302.713 481.987 279.889C482.768 252.839 467.924 230.022 449.168 213.959C428.856 202.128 408.537 187.762 389.78 170.853C385.093 189.452 367.906 213.959 326.493 221.564C353.837 214.804 381.968 188.607 380.406 173.388C378.062 159.022 346.806 156.487 364 108.303C403.849 -32.8455 242.881 -16.7892 250.693 53.3662C248.349 60.1267 249.912 62.6619 247.568 73.6553C243.662 77.8806 246.006 82.951 253.044 88.0214C252.256 89.7115 252.256 92.2467 253.825 93.0918C251.474 100.697 249.131 104.923 247.568 112.536C244.443 117.606 246.787 120.986 253.044 123.522L255.387 128.592C253.044 133.662 254.606 137.043 260.075 137.043C266.325 137.888 271.012 141.268 274.137 145.493C270.231 142.113 265.543 140.423 262.418 139.578C264.762 142.958 265.543 145.493 265.543 147.183C265.543 150.571 265.543 153.106 267.106 154.797C266.325 151.416 266.325 149.726 267.887 148.881C269.45 150.571 271.793 151.416 274.918 150.571C275.699 152.261 275.699 154.797 274.918 156.487C273.356 157.332 271.012 158.177 269.45 158.177C271.012 159.867 272.575 159.867 274.137 158.177C272.575 159.867 270.231 160.712 267.887 159.022C265.543 158.177 263.981 156.487 263.2 153.951C263.981 158.177 266.325 161.557 270.231 162.402C271.012 164.937 271.793 167.473 271.793 170.008C271.793 180.149 276.481 184.374 287.425 183.529C304.612 180.994 321.018 182.684 338.212 138.733C327.275 180.994 306.174 183.529 286.637 186.917ZM281.949 170.008C286.637 164.092 281.949 148.881 278.824 143.803C281.949 152.261 282.731 160.712 281.949 170.008ZM380.406 268.903C391.35 273.973 399.162 280.734 405.412 290.875C409.318 312.854 427.293 328.91 448.387 329.755C439.793 332.29 431.2 332.29 422.599 328.91L439.793 365.255C420.255 338.213 410.099 321.304 409.318 317.079C392.912 328.91 378.843 333.135 367.125 330.6C388.999 326.375 401.506 319.614 404.631 311.164C386.655 299.333 367.125 291.72 345.243 285.804C364.781 288.339 383.53 295.1 401.506 303.558C399.943 288.339 392.131 275.663 380.406 268.903Z" fill="#2F0B62"/>
</g>
</svg>
